# xmcd CD database file
#
# Track frame offsets:
#	150
#	22840
#	57235
#	77733
#	98823
#	119913
#	143695
#	166740
#	200026
#	220348
#	251383
#	267800
#	296235
#
# Disc length: 4195 seconds
#
# Revision: 2
# Processed by: cddbd v1.5.2PL0 Copyright (c) Steve Scherf et al.
# Submitted via: Feurio! 1.67 - http://www.feurio.com
#
DISCID=bd10610d
DTITLE=Various Artist - Afrika Twarag
DYEAR=2000
DGENRE=Ambient
TTITLE0=Ismael Lo - Afrika
TTITLE1=Youmou Sangoré - Saa Magni
TTITLE2=Ali Farka Touré - Allahuya
TTITLE3=Youssou N'Dour - Reegeey
TTITLE4=Kantemeilla - Agneaka
TTITLE5=Hassan Hakmoun -  Allah Allah
TTITLE6=Youssou N'Dour - I'll Be Waiting
TTITLE7=Ali Farka Toure and Ry Cooder - Diaraby
TTITLE8=Ismael Lo - Without Blum
TTITLE9=Rasha - Adis Mahachir Biman
TTITLE10=Yousou N'Dour - He Giallaho
TTITLE11=Issa Bagayoga - Bara
TTITLE12=Guem - Instrumental Purcussion
EXTD=
EXTT0=
EXTT1=
EXTT2=
EXTT3=
EXTT4=
EXTT5=
EXTT6=
EXTT7=
EXTT8=
EXTT9=
EXTT10=
EXTT11=
EXTT12=
PLAYORDER=
